<mxfile host="app.diagrams.net" modified="2024-04-23T12:35:22.246Z" agent="Mozilla/5.0 (Macintosh; Intel Mac OS X 10_15_7) AppleWebKit/605.1.15 (KHTML, like Gecko) Version/16.4 Safari/605.1.15" version="24.2.8" etag="P6tE2g7O56iTNR3Aw4u2" type="github">
  <diagram name="Trang-1" id="kMyYjqt0XzwwkeoykZDi">
    <mxGraphModel>
      <root>
        <mxCell id="0" />
        <mxCell id="1" parent="0" />
      </root>
    </mxGraphModel>
  </diagram>
</mxfile>
